<svg width="110" height="110" viewBox="0 0 110 110" xmlns="http://www.w3.org/2000/svg">
  <title>Attendy</title>

  <!-- Outer rounded square -->
  <rect x="0" y="0" width="110" height="110" rx="24" fill="#12161a" stroke="#1e2530" stroke-width="1.5"/>

  <!-- QR corner — top-left -->
  <rect x="13" y="13" width="30" height="30" rx="7" fill="none" stroke="#3b82f6" stroke-width="3.5"/>
  <rect x="20" y="20" width="16" height="16" rx="3" fill="#3b82f6"/>

  <!-- QR corner — top-right -->
  <rect x="67" y="13" width="30" height="30" rx="7" fill="none" stroke="#3b82f6" stroke-width="3.5"/>
  <rect x="74" y="20" width="16" height="16" rx="3" fill="#3b82f6"/>

  <!-- QR corner — bottom-left -->
  <rect x="13" y="67" width="30" height="30" rx="7" fill="none" stroke="#3b82f6" stroke-width="3.5"/>
  <rect x="20" y="74" width="16" height="16" rx="3" fill="#3b82f6"/>

  <!-- QR data dots — bottom-right -->
  <rect x="67" y="67" width="9" height="9" rx="2" fill="#3b82f6" opacity="0.55"/>
  <rect x="80" y="67" width="9" height="9" rx="2" fill="#3b82f6" opacity="0.35"/>
  <rect x="93" y="67" width="9" height="9" rx="2" fill="#3b82f6" opacity="0.6"/>
  <rect x="67" y="80" width="9" height="9" rx="2" fill="#3b82f6" opacity="0.3"/>
  <rect x="93" y="80" width="9" height="9" rx="2" fill="#3b82f6" opacity="0.45"/>
  <rect x="80" y="93" width="9" height="9" rx="2" fill="#3b82f6" opacity="0.5"/>
  <rect x="93" y="93" width="9" height="9" rx="2" fill="#3b82f6" opacity="0.25"/>

  <!-- Checkmark -->
  <polyline
    points="34,58 50,74 76,44"
    fill="none"
    stroke="#ffffff"
    stroke-width="6.5"
    stroke-linecap="round"
    stroke-linejoin="round"
  />
</svg>